HIERARCHY
ROOT pelvis
{
  OFFSET 0 100 0
  CHANNELS 6 Xposition Yposition Zposition Zrotation Xrotation Yrotation
  JOINT pelvis_right_femur
  {
    OFFSET -10.78128 -3.44521 -0.5502486
    CHANNELS 3 Zrotation Xrotation Yrotation
    JOINT right_femur_tibia
    {
      OFFSET -0.8047443 -44.0398 -0.1307829
      CHANNELS 3 Zrotation Xrotation Yrotation
      JOINT right_tibia_foot
      {
        OFFSET 3.006224 -47.83518 -5
        CHANNELS 3 Zrotation Xrotation Yrotation
        End Site
        {
          OFFSET 0 -5 15
        }
      }
    }
  }
  JOINT pelvis_left_femur
  {
    OFFSET 10.78128 -3.44521 -0.5502486
    CHANNELS 3 Zrotation Xrotation Yrotation
    JOINT left_femur_tibia
    {
      OFFSET 0.8047443 -44.0398 -0.1307829
      CHANNELS 3 Zrotation Xrotation Yrotation
      JOINT left_tibia_foot
      {
        OFFSET -4.370144 -48.10324 -4.275266
        CHANNELS 3 Zrotation Xrotation Yrotation
        End Site
        {
          OFFSET 0 -5 15
        }
      }
    }
  }
  JOINT pelvis_spine1
  {
    OFFSET 0 6.468898 -3.129235
    CHANNELS 3 Zrotation Xrotation Yrotation
    JOINT spine1
    {
      OFFSET 0 23.15396 4.99043
      CHANNELS 3 Zrotation Xrotation Yrotation
      JOINT spine2
      {
        OFFSET 0 20.79997 -5.064912
        CHANNELS 3 Zrotation Xrotation Yrotation
        JOINT neck
        {
          OFFSET 0 14.38658 9.616178
          CHANNELS 3 Zrotation Xrotation Yrotation
          End Site
          {
            OFFSET 0 20 0
          }
        }
      }
      JOINT right_manubrium
      {
        OFFSET -5.722621 16.35077 3.967754
        CHANNELS 3 Zrotation Xrotation Yrotation
        JOINT right_clavicle
        {
          OFFSET -13.16364 1.694482 -4.693211
          CHANNELS 3 Zrotation Xrotation Yrotation
          JOINT right_humerus
          {
            OFFSET -28.5034 -0.3100689 -2.792744
            CHANNELS 3 Zrotation Xrotation Yrotation
            JOINT right_radius
            {
              OFFSET -25.15693 0.02248979 -1.271978
              CHANNELS 3 Zrotation Xrotation Yrotation
              End Site
              {
                OFFSET -15 0 0
              }
            }
          }
        }
      }
      JOINT left_manubrium
      {
        OFFSET 5.722621 16.35077 3.967754
        CHANNELS 3 Zrotation Xrotation Yrotation
        JOINT left_clavicle
        {
          OFFSET 13.16364 1.694482 -4.693211
          CHANNELS 3 Zrotation Xrotation Yrotation
          JOINT left_humerus
          {
            OFFSET 29.39168 -1.063119 -2.237045
            CHANNELS 3 Zrotation Xrotation Yrotation
            JOINT left_radius
            {
              OFFSET 24.59957 -0.9528479 0.9047498
              CHANNELS 3 Zrotation Xrotation Yrotation
              End Site
              {
                OFFSET 15 -0 -0
              }
            }
          }
        }
      }
    }
  }
}
MOTION
Frames: 9
Frame Time: 0.0416666666667
475.1568 102.9784 2972.358 0.800085 -5.970941 12.77031 6.490376 -4.526126 3.578505 -0 13.57807 -0 -6.56696 -7.123663 -4.043757 -2.316867 -4.185166 -7.455921 -0 62.24511 -0 -7.3918 -5.759668 13.33111 -1.512518 -0.1188168 5.376361 2.322776 11.2077 -7.588876 0.7961468 20.84298 6.10849 3.033724 -22.96248 6.530151 3.581355 -18.59259 11.96996 86.15946 29.73805 -16.97884 -0 0 13.09578 -16.2747 10.43984 10.32843 4.384987 -20.30093 -2.376809 -89.18665 21.37531 18.7988 0 0 -16.99085 4.741933 8.223287 8.03681
476.3178 103.8344 2977.653 1.817048 -6.456475 12.1173 5.261309 0.8596493 3.45563 -0 11.29814 -0 -5.521267 -8.891453 -3.353549 -1.808654 -11.68126 -6.43615 -0 59.80606 -0 -6.571299 -5.554791 14.15873 -1.736079 -0.06220282 5.940182 1.869633 11.2105 -6.896085 0.7929285 21.19888 5.843356 2.893122 -22.21563 6.224602 3.305969 -19.28636 11.93725 85.02084 29.40574 -14.7663 -0 0 14.62912 -17.32237 10.12589 11.17714 4.038895 -19.70802 -2.382332 -89.63037 21.45116 20.10467 0 0 -15.65329 4.093008 7.925808 8.868705
477.4706 104.0028 2982.835 2.252298 -6.509431 11.49458 4.545722 5.605912 3.31961 -0 9.451899 -0 -4.853662 -11.01997 -2.685084 -0.6531126 -17.96916 -5.391474 -0 52.71784 -0 -6.047945 -5.795438 15.72814 -1.928505 -0.05012061 6.564744 1.365918 11.1232 -6.167179 0.8101473 21.43834 5.623929 2.808737 -21.44644 5.950535 3.007457 -20.09584 11.88186 83.69758 29.11785 -12.32953 -0 0 16.47236 -18.4989 9.912221 12.08429 3.839106 -19.13769 -2.286077 -90.10722 21.50662 21.45375 0 0 -14.57406 3.463858 7.650549 9.718924
478.6604 103.4872 2987.984 1.817803 -5.966915 10.81521 4.633288 9.659536 3.133633 -0 8.375992 -0 -4.688597 -13.44919 -1.953297 1.15573 -23.0108 -4.056783 -0 41.78666 -0 -6.085695 -6.209167 17.24674 -2.038944 -0.07942841 7.17315 0.8726496 10.96345 -5.499706 0.8482637 21.53238 5.465169 2.777655 -20.71481 5.733206 2.714714 -20.92685 11.80504 82.34219 28.84837 -9.959818 -0 0 18.42876 -19.69422 9.844115 12.95931 3.790483 -18.64033 -2.123358 -90.56064 21.5391 22.69821 0 0 -13.85612 2.887036 7.401068 10.54762
479.9884 102.5177 2993.216 0.8213584 -4.777698 10.12628 5.062364 12.72615 2.925356 -0 8.266319 -0 -4.735004 -15.66978 -1.099419 3.057521 -26.76959 -2.507505 -0 29.83635 -0 -5.906449 -6.133321 17.69368 -2.058952 -0.1169463 7.665553 0.461186 10.78802 -4.988684 0.9039634 21.50381 5.370845 2.784814 -20.08908 5.587494 2.490962 -21.60517 11.7234 81.18055 28.58274 -8.044237 -0 0 20.1464 -20.75451 9.925511 13.68155 3.845414 -18.25421 -1.969189 -90.90507 21.56182 23.62653 0 0 -13.51324 2.373982 7.166997 11.32057
481.5178 101.3334 2998.688 0.07953359 -3.855535 9.4727 5.089831 15.11694 2.883305 -0 9.358595 -0 -4.275489 -17.15865 -0.5023156 4.001177 -28.57604 -1.666881 -0 20.88576 -0 -5.345335 -5.703284 17.66512 -2.037814 -0.1254839 7.98542 0.1703748 10.66025 -4.662216 0.9699901 21.42429 5.329624 2.808548 -19.61859 5.511725 2.383699 -21.99383 11.66145 80.38458 28.32964 -6.822132 -0 0 21.32775 -21.55777 10.09449 14.1631 3.927918 -17.98384 -1.886708 -91.09399 21.59168 24.11877 0 0 -13.42839 1.932094 6.94884 11.99296
483.2589 100.1019 3004.541 0.004395485 -3.840677 8.802434 4.398534 17.3759 2.877373 -0 11.78351 -0 -3.266206 -17.35712 -0.2306792 3.469742 -28.51401 -2.318902 -0 16.25553 -0 -5.177936 -5.739018 18.17944 -2.026219 -0.09692087 8.14933 -0.009050672 10.60256 -4.482617 1.036023 21.35494 5.32194 2.833093 -19.29714 5.486534 2.389418 -22.09685 11.63072 79.95469 28.11838 -6.238961 -0 0 21.93453 -22.09047 10.28329 14.41198 3.987991 -17.81008 -1.886936 -91.14452 21.63242 24.232 0 0 -13.46528 1.566085 6.761231 12.53769
485.2031 99.02108 3010.874 0.4549672 -4.337004 8.159018 3.125587 19.42038 2.715688 -0 15.65367 -0 -2.281928 -15.76092 0.06355214 1.88681 -27.38217 -4.088667 -0 14.86289 -0 -5.499769 -6.346879 19.03704 -2.037355 -0.04442344 8.21009 -0.1134286 10.59858 -4.394466 1.09618 21.31239 5.332002 2.852919 -19.07319 5.489834 2.47096 -22.01093 11.62424 79.77512 27.95771 -6.075727 -0 0 22.13319 -22.43206 10.46838 14.50498 4.017746 -17.7036 -1.946404 -91.10147 21.67794 24.10625 0 0 -13.55204 1.260728 6.606224 12.97641
487.3254 98.25882 3017.671 1.260755 -5.060138 7.700572 1.555812 20.65703 2.532475 -0 21.26956 -0 -1.615054 -11.96571 0.336353 -0.1536403 -25.4373 -6.185103 -0 15.65711 -0 -5.711469 -7.124621 19.69429 -2.064274 0.01832483 8.210216 -0.1733672 10.62598 -4.359679 1.149192 21.29109 5.351428 2.867454 -18.90089 5.508238 2.593824 -21.82342 11.6309 79.74068 27.83925 -6.149814 -0 0 22.09291 -22.66192 10.65101 14.51141 4.025883 -17.64093 -2.040679 -91.00147 21.72225 23.85155 0 0 -13.664 0.9975229 6.477608 13.34187
